<mxfile host="app.diagrams.net" modified="2024-04-29T08:19:52.875Z" agent="Mozilla/5.0 (Windows NT 10.0; Win64; x64) AppleWebKit/537.36 (KHTML, like Gecko) Chrome/124.0.0.0 Safari/537.36" etag="b57NIeGMd3OQOGOn3eOM" version="24.3.1" type="github">
  <diagram name="Page-1" id="qPZybV3zCfEUb5zGRMGi">
    <mxGraphModel dx="1474" dy="757" grid="1" gridSize="10" guides="1" tooltips="1" connect="1" arrows="1" fold="1" page="1" pageScale="1" pageWidth="2500" pageHeight="1100" math="0" shadow="0">
      <root>
        <mxCell id="0" />
        <mxCell id="1" parent="0" />
        <mxCell id="W8DNCVB_tDqZT8sr9vg--1" value="" style="shape=image;verticalLabelPosition=bottom;labelBackgroundColor=default;verticalAlign=top;aspect=fixed;imageAspect=0;image=data:image/png,iVBORw0KGgoAAAANSUhEUgAAAdoAAACzCAYAAAAuaN2JAAAAAXNSR0IArs4c6QAAAARnQU1BAACxjwv8YQUAAAAJcEhZcwAADsMAAA7DAcdvqGQAABW3SURBVHhe7d29burKFsDxdW6TF0GKIiQad3kCpBSko4tEly5NRLmLlOg06eiQ0qULRSSeIB0NEoq2xItQnTtr/G2+bOwBG/4/yXefG2NjBuPl+fCsf9br9X8CAACc+F/wLwAAcIBACwCAQwRaAAAcItACAOAQgRYAAIcItAAAOESgBQDAIQItAAAOEWhxJWbyfHMv76vg/16J1fu93NzcBMuzKYUkLZNwnVme02uBZtPzO3vOHyP+ndwfeQGpINCu5P1+248Y1Ti+fPdfZJvOL5d8sUFf25PF6ENeWsGfIldw/g6msl6vzTKWbvAnX1fG9u9rmQ6CP1Wu7uXL8V2urryOFtIrWXaz555Mgt/Qz+YFJJez12htMLh/N6fTdXL5+VsvP/4F1t1VtBFW708ylJF8HPkj2efaz1/XKN9yypZf3cv/0PG1Xj5k5E2kd3RrzUr+Lsy96mP6FrWoCgJtS15+tt0toxqUbymrd3kaiow+XkxJbkP5ulX38uX4Lpspv4+ReJO3s3YblQq09m5iZ9Ok3+TxPEv2A8V9ZOG27eFcZD6U9pbX5DF7Drfzl+yNS2r9ljuf7Pbxa8Ljt//HN3ve2Mfu/Zf//PvL15c+/uqbl6ot3/Tx2c+nO9RyDV6z0QdiAuV9tL1ZNt4jbFrTZfPcWX1/ytzry8OWKFu/87dY+eQqvzOqX/mmz9/9x7e5rV1y//7LO2f55d2+3O87+duNl+RrdpVvoc/XepC+N5fP7+yK0ykVaPM0TU56b3K31Dsy7Qeay/DJL6xw2+XIE/FGstT92OVnSz/adlrYvUVy27WME7d9+iX1JOyfMu/fMV9I4svKrrfHUsCh/asyn/9Q+ern/3oMt9P9T6RX4Y+9bPnmOr5JT27e7vz3WI7EFFD8Q9EfaHsonWm8j/VPumY66bXl90+4/7h8Q6vfuXj9h9Q2oTqcv6XKRx1af0Z1KN995++h4+uO4+3W66kMxEu1jOT5/ZdxzvLLs33Z83f23JZhJyy/pfhvtYz6QfeVb7HP15KHvifz32O+mZX8zj25y1Fm+zjvox1M4w/efdx9whxt/inbb1Rm8jUxP4zX+JfVfR2JF77e1JTeMuuLObD/gMvPrydb8sJRq/I18h3fQKZh8GzdSkfmEv4eZl8TO5AnuY+sgQnC4frN/fv9K2Wc//vbXT6+Q+vr7XzXhyK05tUTU9CJi3i+379rzstvj3Lnr5afWRv1fWaDoYPyXfxN3wTsFbYUfMljgZu7Xc4+GKoM/aLtTVJ7s2lBVn9lYb7UaJ0upnY0D1b7OnJ7bAHm2r9j2WbVnjlzK1S6fPMc3+Ax0ffkj4L1f7zVDEKotVLlEzi0/ortPX8LsIPpTM0rVa51+P2fW6nztysalydfYWPzSr4/5+KFVcezl28wIn95J28Fuyu2aXSgVfpjipoeZCjtZCeMNvUEzSrxkrw7WcjfUgV4aP8umTsuc+KZA4jfe08T07GOL99qjm9R7guqsdN8f9du//mbgwkmT599WW69eznn7//cKjp/tWnZBlK/GTn9+EzF5du59WvWRQT9u2Vbic4eaFu3nYqad1qiu4oEBTT8d8cPK2jGiDrIZ89+x3pGdMeld2/JO7ZD+8+pus9vTvyKa7RpBct3Q9HjC5qSSvU5Bvv4/D6qJpNHc76/Y5njshfCzcFCp+Ds+pCLBpNP6W8bsZ77/G92+eXfvuj5GzQNJwNp8mYmZ/nmO75MbfkMSgTaxIgxW8AT6dkTqmA1uzv2O/GjJoL822tnedSsYBY78CH6snRYvLmLXYR3TMESNR91Zey3K/l/1w771B1ZOCw82L79K3+y6/fuP6edn/9Q+erD2BqIguO/eZO7UfL4yn8/Zct3//EdttH0l9p/Pq2HvnjzoWz+Xs99/pYvn9NoyZ2n/04kauXLpe7Xh8PHZycqyDZfRuvz/v6bW37Wzu3Lnr+6fea3rUtUfjnLN8/nW33L59yT/rZHD07kH3Mn8V/w31dPR9G1tZkoM7IVzWZHL+pF9gq/V3tO//5J1xa2iEZ4bnmd3YdtJbyWZtFqUX5baAuhthakykRr/zqDWzzyuDy9YWnLZ//Yffrb65MNB35CezW+jxY4pDs2d8bH9M/B8JvdZMezyDiE8ttq9bs5sMkOgNKu1OoKqvyscH6XQzxo6zgE2qsU9hvtXi4rJmkz1FQGZ54d5myiASfZfsL4PLCtk1l2ooHgWUdaeYqj/HbbaPI1i6n26zPzZWqOaTP5d9iJHy86Unes1w7/N3TshDA0HQMA4BA1WgAAHCLQAgDgEIEWAACHCLSV0YElBZ9RAy6a/iaqmKghHrRVp+xEQF6XEWgzc26e/seoz1rp818fW56TCx88P8/MMOd+/9SkAQUnm8jn3OV7yDUfn05KsJBeyX3biSMGfhaX6p6vBE7nAgKtuVDYzN7xnJun/jGWf1ZrN33Y3U2Aci+aKMJ+LzzLeo1aLx8y8ibSO/p7v4LkErh4F/B4jzYraU7GM826snWGk+o0d7aqLd+LPlfYW9R2hhy9MXi7q3JWGlilfiNa4y4/Mw9wThfeRxs2i4VLugnL1hb1Tts+WO6/pmiz8+r7U+Y7Zn2x+9/x3uGxPc/i/qfkPJ3htjbRwdzUBLe85pD97+/Y7EsmqTSE5vO+6awI2UwYwec/otZe3efzj0Fr30VbJVJN42ZJVtwOHV92W7tkyuFw07v78rOv21MjPbQ+nCA+SuABXJnmBtooOGYn/g4vGP6dcJzBX7Pxb+kv0hk/NKGAvsbOYF8sW8zqdy5e/2FrbTNK0bUnfdSkp7U+//jsTClP/gUz3HY58kS8sPlVl/y1gjzvv1vyBiC95G4F9O78crF96ForWYp+nKqU+3wBe2z+/KpFZ+/RABM3jftLstZ16Pi643i79XoqA00LlsgUY5vedf7h4DXTjrnhqrAboZLyyyWb1LuIlfzOPTlj4hWgtOYG2u44fYGK0i2NxV7rbMaGgUwTV77Wyx/z2mwWDfOa8AIbpM7Lfz3w+4/KGEzjwNnVTMi1ESQ+3rIUacKztR3bbLhru+B9ztA07h+bP+3b0c3FlaRw05vCnpgTMXETFaQRe40Lrfs6Em/j/c5XfoUt/ha4SQhv9L7k8WpyvOJSXW7T8bZJq82lyE9ZlTB49AOz5V+06AtSFdRo50Ppaf9ydKHU2oldUwPBZO8laI0wlcbvyNqmHUzXmabPOzvB+uZcsKcqPnsTEryv7b6I5kv2u1cOrS8vuIFY3skbj82h4S68jzarThf6uitZo23did7TDP4kalo2eAykHgNINdGA+TwmUi56xweHqPn12FHVq3d50puRrYWaSYxtl9PU7uLPpV0a5g/B4zW6aO3/0PqtOrfFa91B/+5Rrc5ATVxuoO0+2mbi5GMF9nk8bySJ1riSgr6nz++jajJ5tDRHUyXNkyfWepE/5gI8eQtreSv7GNY81YKgwppzmcFMJZjj/FlPpaMJrEv1f/rptIoxn12b1RP9spEgwAw3M9ZnnLn8cvFbDzw6WnGlLrhGqzWyOL2RLi6Sf7ce+uLNh7J5PfRHFdv3tjnITNC3x1GwGWwjnVTe7St6/xKiPLD2fYOBaRs1t7A5P9t3fkiVn8+vvetgo6cCG2dHDdvzK/p8h4/P3vhlm4ej9VrjNuW3iM9fu2zcDNSh/A6w4yU86ZOQFVeKNHkVsKNDHQTxq2Gfr53IoNJclFek1uWnAb0tn/1jn0/2t+c5WjTZlfXRuhHV3Ir2z8EwF1J9vrbSJv1rUu/yKz9rmt8kPylWXQdqhRptZbSv7IwzVDVRUBOzzwnTGlBc7ctPfxP6eE7wyN3RdD/azK4flZm70DwEWgAAHKLpGAAAhwi0AAA4RKAFAMAhAm1j6ICQ0z0DG0pOtVd8UoRwMoVgYVR2xbR8q5ioIv6eqpk+EUASgba08MH/PRc8myEmDjjFL2b6Hpph5uM8I5qj6fW2jR7d9/njaRydJ4i5Sl153ZaRqiA7cUbwHTOiF6gegdY5E4iehiKahi0IOkUvZuWfRcQutsZeYeq5qh06vtbLh4y8SWqq0WL8DFSDekxADVwkAm1pweT0O58V9PNpHj39nE46r3F623y4tXDo88MtU/4fI/EmbyfvVgCQD4G2hHL9l/msvj9l7vVlV5xOz7ebPgZ7fFrTiZLkp5utD60/5BSf35Xw2G2Kt3k4H7Mu6X7wMuVrXhE0q6eX5GtS+0/UXPMenxUkIPhsXOYJ4DoQaEuIUoVt64CMLr7ZieOLBaTV71y8/sPW2qxejL8e/eZoXaaDifSyzYyaVOHtTpb6Gps89Sl9oT60fo+9n7+0zECqxOK3kh5av1947MuR58+spJ/DLvHMXmXLd/YcJFKw2y/Ff6t4ZiM7R7bE6eU0qUE72H+e44sFWaSOyiXnt7iQWAdwh0DrSnccXBinMkjlFS3SxOr3n+2iF+PkROvdx20BbyDTcHq+1q10TNBPX48PrT+XQ/lwS+bLzaFc+c7ka5Ls+8wGQ11vzovEBMXd15F4ZVIiLv6mbwL2Cm9UdIpEpg0FXCLQNllmNLOf7iwjlf/VD06pQHRo/dm4rdHmUqp8u6JxOZ4MP5OT1SbBz6TIaw/NX04luFFZ3snbGR4bA64JgbaxTKAxF+bkaGY3TbjncqjGemh9WRWVrzYt20DqNyOnR5wnWzrCpUTtsnPr16yLCPp369GKAVwmAm2tBc2Nn985mgRNYNhW48JeLc3Blqu5tmj5Bk3DyUCavAMIAtzw3/3V73zHl6ktA6gVAu3REiNK7QV4Ij1bc6m2Ga710BdvPpTN67FOVmCC8LAd1Jje5G50yhrtaT6/c92xTAfJJtzw+MuWr24v6aZhXaLBVPpY1FJGi7DGm10f2Hl8Catv+SzzCBkAp0iT1wB2dOriPDlHdeRt+/dPujZ2hGiEbTXtuvWn/bvtT+mn8hNrv7LO8FVlTlW94WnLZ//Yffrb//6pS988cHmo0TZAd2xqPjKUdmWjfODc6ndzYJMdAKVdqdXdLpWfNawl2jodD9oCUDUCbSNoM+NUBuea/Sca0FN0UgqtwflNnlfXfbzR5GuW9lA60yprjjP5d9iJHy86Unes55b/HRefhxvAITQdAwDgEDVaAAAcItACAOAQgRYAAIcItAAAOESgRc2FE2M0Kw0fAIQItFfO5j3NzkYEAKgMgRY1p88Q61zBRdILAkB9EGgbzNZGdbaoKMn85oQDOvVhNGFCouZqtzV/aw/nIvOhtMPXRHPp+k22qcmo9H2y+9j5/uH28aQVRedBDo/RX3Y1HQf7p1YOoKYItE2nM/q83clSs8MsdRb7pyiYRfMLB9ljph0TUIOApEnN9W/LkSfijfzt7VIwTdue91eT3pvcBRls7ExJT/kDYniMl5X+D8C1IdA23iCegq91Kx0Jc4sGadpe4wbX7utIvFwp4YrY9f6+wTQO3F3NhF65IC/tGRIuAEAeBNqmGzwm+i79oGPn0rUT2G/Otbsx0X1Zu94fAGARaC9aJvG4XQo2DQMASiHQXqrWg/Q9U6PdzBif0tIcaXuak6P0aZpftZYpeMLBVjxnC6CeCLQXSx+LWcpoEaa4C5bs6NyNdG7hyGCz/cdIvCB92k37V/6cdFBSOFGFWWyAn0gvdXyhltx5+u9ESKkKoI5Ik4fm08eLTDAeVJrrFQCqQY0WDWdqvm+mxuuNJDHAGgBqg0CL5rITZbRlKCNZ8ngPgJqi6RgAAIeo0QIA4BCBFgAAhwi0AAA4RKAtIc4uw2QJAIDtGAxVgShLDg9xAgAyqNFWwGalWfzNnf4NAHA9CLQAADhEoAUAwCECbRVadw4SqgMALgGBtgqtF/lZf4g8MQIZAJBGoK2C5mq9eRL50MTqY2HsMQAgRKCtwupX5l5fHpjVHgCQQaAFAMAhAi0AAA4RaAEAcIhAW4HZ10Skc0vicQDABgJtCWFSgd5kIFPmOQYAbEFSAQAAHKJGCwCAQwRaAAAcItACAOBQowNtOBiJ+YUBAHV1EYOhZs830pOprBn5CwComYtoOu4+DkQWf4UsdQCAuqGPFgAAhwi0AAA4dBmBtnUn3vxTvmk7BgDUzIUE2hf5WX+IPDECGQBQL5cRaFfvcn/zJPKxlvV6LIw9BgDUxYUE2l+Ze315IH0OAKBmGAwFAIBDBFoAABwi0AIA4NBFBNrZ10Skcyt00QIA6qbRgTZMKtCbDGTKPMcAgBq6iKQCAADUFX20AAA4RKAFAMAhAi0AAA4RaAEAcIhACwCAQwRaAAAcItACAOAQgRYAAIcItAAAOESgBQDAIQItAAAOEWgBAHCIQAsAgEMEWgAAHCLQAgDgEIEWAACHCLQAADhEoAUAwCECLQAADhFoAQBwiEALAIBDBFoAABwi0DbeSt7vb+Tm5llmwV8AAPVx9YF29X4vN/fvJlw10OzZBNgnkf4g+AMAoG6o0TbWTJ57ItP1j7zcBn8CANROowOtrY0+z4KanTaf3sj9e7puOnv2/26XRM3Vbmv+1h7OReZDaYevubkXfxd+k6zuPqLvk93HzvcPtzcBcWPfVejKeD02/3tI8P5NrbUDQMM1v0Y76cnN250s12tZL0ciw6comGmQ7clU1rrOLNOOCahBwGm9/Ni/LUeeiDfyt7eLqSG2/O1z2fP+atJ7k7tl8P6DuVlNwAOAa3IBTccDmf68iI2NrVvpyFx+bSSbydfEk9FrXOfrvo7Em3/Kd6WRbtf7+wbTOHB3H8/Rl6o1XxPow2MEAJxU8wPt4DHRfOoHlbH+YfVXFiboDdths61Z2kPzl4rtev9KJJud/SXVlA0AqL0LHwxlarRBs228FGwaPqugNppYqgviAIBTuNxA23qQvmdqtP/urwK2bjsie5qTJ1/B9qt3ue9N/P9ulLBWzHO2AHAOF1yjbcnLz1JGi16q6XVj9G137A9SipqYw5HBZvuPkXg62En/3v6VP9M6Pa8aTlRhFnsDMJFe6vhDLbnz9N+JhPcMAIDT+We9Xv8X/DculT5+ZILxYErTMwCc2oX30cLWfN9MjdcbSWIANgDgRAi0l8xOpNGWoYxkyeM9AHAWNB0DAOAQNVoAABwi0AIA4BCBFgAAh0oF2jADDpMhAACwXSWDoaIsOTykCQBASiVNxzYrzeIv6d8AAMigjxYAAIcItAAAOFRNoG3dOUioDgBA81UUaF/kZ/0h8sQIZAAAkqoJtJqr9eZJ5EOTk4+FsccAAPgqCrS/Mvf68sCs9QAApDAYCgAAhwi0AAA4RKAFAMChSgLt7Gsi0rklsTgAABmlAm2YVKA3GciUeY4BANhQSVIBAACwHX20AAA4RKAFAMAhAi0AAA4RaAEAcIhACwCAQwRaAAAcItACAOAQgRYAAIcItAAAOESgBQDAIQItAADOiPwfHRIwwWZVRkEAAAAASUVORK5CYII=;" parent="1" vertex="1">
          <mxGeometry x="160" y="40" width="474" height="179" as="geometry" />
        </mxCell>
        <mxCell id="W8DNCVB_tDqZT8sr9vg--3" value="" style="endArrow=classic;html=1;rounded=0;strokeColor=#1d722e;" parent="1" edge="1">
          <mxGeometry width="50" height="50" relative="1" as="geometry">
            <mxPoint x="470" y="74" as="sourcePoint" />
            <mxPoint x="680" y="74" as="targetPoint" />
          </mxGeometry>
        </mxCell>
        <mxCell id="W8DNCVB_tDqZT8sr9vg--4" value="" style="endArrow=classic;html=1;rounded=0;strokeColor=#1d722e;" parent="1" edge="1">
          <mxGeometry width="50" height="50" relative="1" as="geometry">
            <mxPoint x="428" y="92" as="sourcePoint" />
            <mxPoint x="680" y="92" as="targetPoint" />
          </mxGeometry>
        </mxCell>
        <mxCell id="W8DNCVB_tDqZT8sr9vg--5" value="" style="endArrow=classic;html=1;rounded=0;strokeColor=#1d722e;" parent="1" edge="1">
          <mxGeometry width="50" height="50" relative="1" as="geometry">
            <mxPoint x="350" y="110" as="sourcePoint" />
            <mxPoint x="680" y="110" as="targetPoint" />
          </mxGeometry>
        </mxCell>
        <mxCell id="W8DNCVB_tDqZT8sr9vg--6" value="" style="endArrow=classic;html=1;rounded=0;strokeColor=#1d722e;" parent="1" edge="1">
          <mxGeometry width="50" height="50" relative="1" as="geometry">
            <mxPoint x="292" y="182" as="sourcePoint" />
            <mxPoint x="680" y="182" as="targetPoint" />
          </mxGeometry>
        </mxCell>
        <mxCell id="W8DNCVB_tDqZT8sr9vg--7" value="&lt;font color=&quot;#1d722e&quot;&gt;&lt;b&gt;1 + n + 1 + n = 2n + 2&lt;/b&gt;&lt;/font&gt;" style="text;html=1;align=center;verticalAlign=middle;resizable=0;points=[];autosize=1;strokeColor=none;fillColor=none;" parent="1" vertex="1">
          <mxGeometry x="676" y="58" width="140" height="30" as="geometry" />
        </mxCell>
        <mxCell id="W8DNCVB_tDqZT8sr9vg--8" value="&lt;font color=&quot;#1d722e&quot;&gt;&lt;b&gt;n * 1 = n&lt;/b&gt;&lt;/font&gt;" style="text;html=1;align=center;verticalAlign=middle;resizable=0;points=[];autosize=1;strokeColor=none;fillColor=none;" parent="1" vertex="1">
          <mxGeometry x="676" y="78" width="70" height="30" as="geometry" />
        </mxCell>
        <mxCell id="W8DNCVB_tDqZT8sr9vg--10" value="&lt;font color=&quot;#1d722e&quot;&gt;&lt;b&gt;n * 1 = n&lt;/b&gt;&lt;/font&gt;" style="text;html=1;align=center;verticalAlign=middle;resizable=0;points=[];autosize=1;strokeColor=none;fillColor=none;" parent="1" vertex="1">
          <mxGeometry x="676" y="96" width="70" height="30" as="geometry" />
        </mxCell>
        <mxCell id="W8DNCVB_tDqZT8sr9vg--11" value="&lt;font color=&quot;#1d722e&quot;&gt;&lt;b&gt;1&lt;/b&gt;&lt;/font&gt;" style="text;html=1;align=center;verticalAlign=middle;resizable=0;points=[];autosize=1;strokeColor=none;fillColor=none;" parent="1" vertex="1">
          <mxGeometry x="676" y="167" width="30" height="30" as="geometry" />
        </mxCell>
        <mxCell id="W8DNCVB_tDqZT8sr9vg--12" value="" style="endArrow=none;html=1;rounded=0;strokeColor=#26599c;" parent="1" edge="1">
          <mxGeometry width="50" height="50" relative="1" as="geometry">
            <mxPoint x="678" y="199" as="sourcePoint" />
            <mxPoint x="820" y="200" as="targetPoint" />
          </mxGeometry>
        </mxCell>
        <mxCell id="W8DNCVB_tDqZT8sr9vg--13" value="&lt;font color=&quot;#26599c&quot;&gt;&lt;b&gt;4n + 3&lt;/b&gt;&lt;/font&gt;" style="text;html=1;align=center;verticalAlign=middle;resizable=0;points=[];autosize=1;strokeColor=none;fillColor=none;" parent="1" vertex="1">
          <mxGeometry x="716" y="200" width="60" height="30" as="geometry" />
        </mxCell>
        <mxCell id="W8DNCVB_tDqZT8sr9vg--14" value="&lt;font color=&quot;#a11b1b&quot;&gt;&lt;b&gt;= 4n + 3&lt;/b&gt;&lt;/font&gt;&lt;div&gt;&lt;font color=&quot;#a11b1b&quot;&gt;&lt;b&gt;Eliminating the constants:&lt;/b&gt;&lt;/font&gt;&lt;/div&gt;&lt;div&gt;&lt;font color=&quot;#a11b1b&quot;&gt;&lt;b&gt;= n&lt;/b&gt;&lt;/font&gt;&lt;/div&gt;&lt;div&gt;&lt;font color=&quot;#a11b1b&quot;&gt;&lt;b&gt;Getting the highest degree:&lt;/b&gt;&lt;/font&gt;&lt;/div&gt;&lt;div&gt;&lt;font color=&quot;#a11b1b&quot;&gt;&lt;b&gt;= n&lt;/b&gt;&lt;/font&gt;&lt;/div&gt;&lt;div&gt;&lt;font color=&quot;#a11b1b&quot;&gt;&lt;b&gt;Time Complexity:&lt;/b&gt;&lt;/font&gt;&lt;/div&gt;&lt;div&gt;&lt;font color=&quot;#a11b1b&quot;&gt;&lt;b&gt;= O(n)&lt;/b&gt;&lt;/font&gt;&lt;/div&gt;" style="text;html=1;align=left;verticalAlign=middle;resizable=0;points=[];autosize=1;strokeColor=none;fillColor=none;" parent="1" vertex="1">
          <mxGeometry x="880" y="78" width="180" height="110" as="geometry" />
        </mxCell>
        <mxCell id="W8DNCVB_tDqZT8sr9vg--15" value="" style="endArrow=classic;startArrow=classic;html=1;rounded=0;strokeColor=#a11b1b;" parent="1" edge="1">
          <mxGeometry width="50" height="50" relative="1" as="geometry">
            <mxPoint x="775" y="215" as="sourcePoint" />
            <mxPoint x="870" y="130" as="targetPoint" />
            <Array as="points">
              <mxPoint x="840" y="215" />
              <mxPoint x="840" y="170" />
              <mxPoint x="840" y="130" />
            </Array>
          </mxGeometry>
        </mxCell>
      </root>
    </mxGraphModel>
  </diagram>
</mxfile>
